<svg width="303" height="92" viewBox="0 0 303 92" fill="none" xmlns="http://www.w3.org/2000/svg">
<path d="M48.2245 2.61644C53.1625 2.61644 57.3951 4.02729 60.2168 7.55443C63.7439 11.0816 65.8602 15.3141 65.8602 20.2521V42.1203C65.8602 47.0583 63.7439 51.2909 60.2168 54.1126C57.3951 57.6397 53.1625 59.756 48.2245 59.756H18.5966C13.6586 59.756 9.42606 57.6397 5.89892 54.1126C2.37179 51.2909 0.960938 47.0583 0.960938 42.1203V20.2521C0.960938 15.3141 2.37179 11.0816 5.89892 7.55443C9.42606 4.02729 13.6586 2.61644 18.5966 2.61644H48.2245ZM59.5114 20.2521C59.5114 17.4304 58.1005 14.6087 55.9842 12.4924C53.8679 9.67071 51.0462 8.96528 48.2245 8.96528H18.5966C15.7749 8.96528 12.9532 9.67071 10.8369 12.4924C8.72063 14.6087 7.30978 17.4304 7.30978 20.2521V42.1203C7.30978 44.942 8.72063 47.7637 10.8369 49.88C12.9532 51.9963 15.7749 53.4072 18.5966 53.4072H48.2245C51.0462 53.4072 53.8679 51.9963 55.9842 49.88C58.1005 47.7637 59.5114 44.942 59.5114 42.1203V20.2521Z" fill="#1A73E8"/>
<path d="M122.999 2.61644C127.937 2.61644 132.17 4.02729 135.697 7.55443C139.224 11.0816 141.34 15.3141 141.34 20.2521V59.756H134.992V20.2521C134.992 17.4304 133.581 14.6087 131.464 12.4924C129.348 9.67071 126.526 8.96528 122.999 8.96528H94.0768C91.2551 8.96528 88.0768 10.488 86.4121 12.1526C83.1779 15.1421 82.79 17.4304 82.79 20.2521V59.756H76.4411V20.2521C76.4411 15.3141 77.852 11.0816 81.3791 7.55443C84.9062 4.02729 89.1388 2.61644 94.0768 2.61644H122.999Z" fill="#1A73E8"/>
<path d="M151.922 13.1978C151.922 9.67071 152.628 7.55443 154.744 5.43815C156.86 3.32187 158.976 2.61644 161.798 2.61644H205.535V8.96528H161.798C161.093 8.96528 159.682 8.96528 158.976 10.3761C158.271 11.0816 158.271 11.787 158.271 13.1978V26.6009H205.535V33.6552H158.271V53.4072H205.535V59.756H151.922V13.1978Z" fill="#1A73E8"/>
<path d="M244.333 0.5C247.86 0.5 250.682 1.20543 253.503 3.32171C255.62 5.43799 257.03 7.55427 257.03 10.376V21.6628C257.03 24.4845 255.62 27.3062 253.503 29.4225C250.682 30.8333 247.86 32.2442 244.333 32.2442H233.046C229.519 32.2442 226.697 30.8333 223.875 29.4225C221.759 27.3062 220.348 24.4845 220.348 21.6628V10.376C220.348 7.55427 221.759 5.43799 223.875 3.32171C226.697 1.20543 229.519 0.5 233.046 0.5H244.333ZM251.387 10.376C251.387 8.96512 250.682 8.25969 249.271 6.84884C247.86 6.14341 245.744 5.43799 244.333 5.43799H233.046C231.635 5.43799 229.519 6.14341 228.108 6.84884C226.697 8.25969 225.992 8.96512 225.992 10.376V21.6628C225.992 23.0737 226.697 24.4845 228.108 25.1899C229.519 26.6008 231.635 27.3062 233.046 27.3062H244.333C245.744 27.3062 247.86 26.6008 249.271 25.1899C250.682 24.4845 251.387 23.0737 251.387 21.6628V10.376ZM235.868 61.8721L279.604 0.5H286.658L242.922 61.8721H235.868ZM289.48 30.1279C293.007 30.1279 295.829 30.8333 298.651 32.9496C300.767 35.0659 302.178 37.1822 302.178 40.0039V51.2907C302.178 54.1124 300.767 56.9341 298.651 59.0504C295.829 60.4613 293.007 61.8721 289.48 61.8721H278.193C274.666 61.8721 271.844 60.4613 269.023 59.0504C266.201 56.9341 265.496 54.1124 265.496 51.2907V40.0039C265.496 37.1822 266.201 35.0659 269.023 32.9496C271.844 30.8333 274.666 30.1279 278.193 30.1279H289.48ZM296.534 40.0039C296.534 38.593 295.829 37.8876 294.418 36.4768C293.007 35.7713 290.891 35.0659 289.48 35.0659H278.193C276.782 35.0659 274.666 35.7713 273.255 36.4768C271.844 37.8876 271.139 38.593 271.139 40.0039V51.2907C271.139 52.7016 271.844 54.1124 273.255 54.8179C274.666 56.2287 276.782 56.9341 278.193 56.9341H289.48C290.891 56.9341 293.007 56.2287 294.418 54.8179C295.829 54.1124 296.534 52.7016 296.534 51.2907V40.0039Z" fill="#1A73E8"/>
<path d="M67.5466 3.8294C71.2458 4.52813 74.945 5.92561 77.9044 8.72055C81.6035 12.2142 83.0832 16.4066 83.0832 21.2978V60.427H76.4247V21.2978C76.4247 18.5028 74.945 15.7079 72.7255 13.6117C71.2458 11.5155 69.7661 10.8168 67.5466 10.118V3.8294Z" fill="#1A73E8"/>
<path d="M13.6588 87.2669C13.6588 87.9723 13.6588 88.6777 12.9534 89.3831C12.9534 90.0886 12.2479 90.0886 11.5425 90.794C10.8371 91.4994 10.1316 91.4994 8.72079 91.4994C8.01536 91.4994 6.60451 91.4994 5.89908 90.794C5.19366 90.0886 4.48823 90.0886 3.7828 89.3831C3.7828 88.6777 3.07738 87.9723 3.07738 87.2669H4.48823C4.48823 87.2669 4.48823 87.9723 5.19366 88.6777C5.19366 89.3831 5.89908 89.3831 6.60451 90.0886C7.30994 90.0886 8.01536 90.794 8.72079 90.794C10.1316 90.794 10.8371 90.0886 11.5425 89.3831C12.2479 88.6777 12.2479 87.9723 12.2479 87.2669C12.2479 85.856 12.2479 85.1506 12.2479 85.1506C11.5425 84.4452 10.8371 83.7397 10.1316 83.7397C10.1316 83.7397 9.42622 83.0343 8.01536 83.0343C7.30994 82.3289 5.89908 82.3289 5.19366 82.3289C4.48823 81.6234 4.48823 80.918 3.7828 80.918C3.07738 80.2126 3.07738 79.5072 3.07738 78.0963C3.07738 76.6855 3.7828 75.98 4.48823 75.2746C5.19366 74.5692 6.60451 73.8638 8.01536 73.8638C9.42622 73.8638 10.8371 74.5692 11.5425 75.2746C12.2479 75.98 12.9534 76.6855 12.9534 78.0963H12.2479C12.2479 77.3909 11.5425 76.6855 10.8371 75.98C10.1316 75.2746 9.42622 75.2746 8.01536 75.2746C6.60451 75.2746 5.89908 75.2746 5.19366 75.98C4.48823 76.6855 4.48823 77.3909 4.48823 78.0963C4.48823 78.8017 4.48823 79.5072 5.19366 80.2126C5.19366 80.918 5.89908 80.918 6.60451 81.6235C6.60451 81.6235 8.01536 81.6234 8.72079 82.3289C10.1316 82.3289 10.8371 83.0343 11.5425 83.0343C12.2479 83.0343 12.2479 83.7397 12.9534 84.4452C13.6588 85.1506 13.6588 85.856 13.6588 87.2669Z" fill="#1A73E8"/>
<path d="M50.3409 73.8638C51.7517 73.8638 53.1626 74.5692 54.5734 75.2746C55.9843 75.98 56.6897 76.6855 57.3951 78.0963C58.1006 79.5072 58.806 80.918 58.806 83.0343C58.806 84.4452 58.1006 85.856 57.3951 87.2669C56.6897 88.6777 55.9843 89.3831 54.5734 90.0886C53.1626 90.794 51.7517 91.4994 50.3409 91.4994C48.93 91.4994 47.5192 90.794 46.1083 90.0886C44.6975 89.3831 43.992 88.6777 43.2866 87.2669C42.5812 85.856 42.5812 84.4452 42.5812 83.0343C42.5812 80.918 42.5812 79.5072 43.2866 78.0963C43.992 76.6855 44.6975 75.98 46.1083 75.2746C47.5192 74.5692 48.93 73.8638 50.3409 73.8638ZM50.3409 75.2746C48.93 75.2746 48.2246 75.2746 46.8137 75.98C46.1083 76.6855 44.6975 77.3909 43.992 78.8017C43.992 79.5072 43.2866 80.918 43.2866 83.0343C43.2866 84.4452 43.992 85.856 43.992 86.5614C44.6975 87.9723 46.1083 88.6777 46.8137 89.3831C48.2246 90.0886 48.93 90.0886 50.3409 90.0886C51.7517 90.0886 53.1626 90.0886 53.868 89.3831C55.2789 88.6777 55.9843 87.9723 56.6897 86.5614C57.3951 85.856 57.3951 84.4452 57.3951 83.0343C57.3951 80.918 57.3951 79.5072 56.6897 78.8017C55.9843 77.3909 55.2789 76.6855 53.868 75.98C53.1626 75.2746 51.7517 75.2746 50.3409 75.2746Z" fill="#1A73E8"/>
<path d="M96.8986 73.8638V75.2746H89.1389V82.3289H95.4878V83.0343H89.1389V91.4994H87.7281V73.8638H96.8986Z" fill="#1A73E8"/>
<path d="M134.992 73.8638V75.2746H130.054V91.4994H128.643V75.2746H123.705V73.8638H134.992Z" fill="#1A73E8"/>
<path d="M182.961 73.8638L178.023 91.4994H176.612L172.379 75.98L167.441 91.4994H166.736L161.798 73.8638H163.209L166.736 89.3831L171.674 73.8638H173.085L177.317 89.3831L181.55 73.8638H182.961Z" fill="#1A73E8"/>
<path d="M221.054 86.5623H212.589L211.178 91.5003H209.767L216.116 74.57H217.527L223.875 91.5003H222.465L221.054 86.5623ZM220.348 85.8568L216.821 75.9809L213.294 85.8568H220.348Z" fill="#1A73E8"/>
<path d="M261.264 91.4994L256.326 83.7397H253.504V91.4994H252.093V73.8638H257.031C259.148 73.8638 260.559 74.5692 261.264 75.2746C261.969 76.6855 262.675 77.3909 262.675 78.8017C262.675 80.918 261.969 81.6234 261.264 82.3289C260.559 83.0343 259.148 83.7397 257.737 83.7397L262.675 91.4994H261.264ZM253.504 83.0343H257.031C259.853 83.0343 261.264 81.6235 261.264 78.8017C261.264 78.0963 261.264 76.6855 260.558 75.98C259.853 75.2746 258.442 75.2746 257.031 75.2746H253.504V83.0343Z" fill="#1A73E8"/>
<path d="M292.303 75.2746V82.3289H299.357V83.0343H292.303V90.0886H300.062V91.4994H291.597V73.8638H300.062V75.2746H292.303Z" fill="#1A73E8"/>
</svg>
