<svg width="302" height="91" viewBox="0 0 302 91" fill="none" xmlns="http://www.w3.org/2000/svg">
<path d="M47.2636 2.11646C52.2016 2.11646 56.4341 3.52731 59.2558 7.05444C62.783 10.5816 64.8993 14.8141 64.8993 19.7521V41.6203C64.8993 46.5583 62.783 50.7909 59.2558 53.6126C56.4341 57.1397 52.2016 59.256 47.2636 59.256H17.6357C12.6977 59.256 8.46512 57.1397 4.93799 53.6126C1.41085 50.7909 0 46.5583 0 41.6203V19.7521C0 14.8141 1.41085 10.5816 4.93799 7.05444C8.46512 3.52731 12.6977 2.11646 17.6357 2.11646H47.2636ZM58.5504 19.7521C58.5504 16.9304 57.1396 14.1087 55.0233 11.9924C52.907 9.17072 50.0853 8.4653 47.2636 8.4653H17.6357C14.814 8.4653 11.9923 9.17072 9.87597 11.9924C7.75969 14.1087 6.34884 16.9304 6.34884 19.7521V41.6203C6.34884 44.4421 7.75969 47.2638 9.87597 49.38C11.9923 51.4963 14.814 52.9072 17.6357 52.9072H47.2636C50.0853 52.9072 52.907 51.4963 55.0233 49.38C57.1396 47.2638 58.5504 44.4421 58.5504 41.6203V19.7521Z" fill="#1A73E8"/>
<path d="M122.038 2.11646C126.976 2.11646 131.209 3.52731 134.736 7.05444C138.263 10.5816 140.379 14.8141 140.379 19.7521V59.256H134.03V19.7521C134.03 16.9304 132.62 14.1087 130.503 11.9924C128.387 9.17072 125.565 8.4653 122.038 8.4653H93.1157C90.2939 8.4653 87.1156 9.98801 85.451 11.6526C82.2168 14.6421 81.8288 16.9304 81.8288 19.7521V59.256H75.48V19.7521C75.48 14.8141 76.8908 10.5816 80.418 7.05444C83.9451 3.52731 88.1777 2.11646 93.1157 2.11646H122.038Z" fill="#1A73E8"/>
<path d="M150.961 12.6979C150.961 9.17072 151.666 7.05444 153.783 4.93816C155.899 2.82188 158.015 2.11646 160.837 2.11646H204.573V8.4653H160.837C160.131 8.4653 158.721 8.4653 158.015 9.87615C157.31 10.5816 157.31 11.287 157.31 12.6979V26.101H204.573V33.1552H157.31V52.9072H204.573V59.256H150.961V12.6979Z" fill="#1A73E8"/>
<path d="M243.372 0C246.899 0 249.721 0.705427 252.542 2.82171C254.659 4.93799 256.069 7.05427 256.069 9.87597V21.1628C256.069 23.9845 254.659 26.8062 252.542 28.9225C249.721 30.3333 246.899 31.7442 243.372 31.7442H232.085C228.558 31.7442 225.736 30.3333 222.914 28.9225C220.798 26.8062 219.387 23.9845 219.387 21.1628V9.87597C219.387 7.05427 220.798 4.93799 222.914 2.82171C225.736 0.705427 228.558 0 232.085 0H243.372ZM250.426 9.87597C250.426 8.46512 249.721 7.75969 248.31 6.34884C246.899 5.64341 244.783 4.93799 243.372 4.93799H232.085C230.674 4.93799 228.558 5.64341 227.147 6.34884C225.736 7.75969 225.031 8.46512 225.031 9.87597V21.1628C225.031 22.5737 225.736 23.9845 227.147 24.6899C228.558 26.1008 230.674 26.8062 232.085 26.8062H243.372C244.783 26.8062 246.899 26.1008 248.31 24.6899C249.721 23.9845 250.426 22.5737 250.426 21.1628V9.87597ZM234.907 61.3721L278.643 0H285.697L241.961 61.3721H234.907ZM288.519 29.6279C292.046 29.6279 294.868 30.3333 297.69 32.4496C299.806 34.5659 301.217 36.6822 301.217 39.5039V50.7907C301.217 53.6124 299.806 56.4341 297.69 58.5504C294.868 59.9613 292.046 61.3721 288.519 61.3721H277.232C273.705 61.3721 270.883 59.9613 268.062 58.5504C265.24 56.4341 264.535 53.6124 264.535 50.7907V39.5039C264.535 36.6822 265.24 34.5659 268.062 32.4496C270.883 30.3333 273.705 29.6279 277.232 29.6279H288.519ZM295.573 39.5039C295.573 38.093 294.868 37.3876 293.457 35.9768C292.046 35.2713 289.93 34.5659 288.519 34.5659H277.232C275.821 34.5659 273.705 35.2713 272.294 35.9768C270.883 37.3876 270.178 38.093 270.178 39.5039V50.7907C270.178 52.2016 270.883 53.6124 272.294 54.3179C273.705 55.7287 275.821 56.4341 277.232 56.4341H288.519C289.93 56.4341 292.046 55.7287 293.457 54.3179C294.868 53.6124 295.573 52.2016 295.573 50.7907V39.5039Z" fill="#1A73E8"/>
<path d="M66.5854 3.32935C70.2846 4.02808 73.9838 5.42555 76.9432 8.22049C80.6424 11.7142 82.122 15.9066 82.122 20.7977V59.9269H75.4635V20.7977C75.4635 18.0028 73.9838 15.2078 71.7643 13.1116C70.2846 11.0154 68.805 10.3167 66.5854 9.61796V3.32935Z" fill="#1A73E8"/>
<path d="M12.6976 86.7669C12.6976 87.4723 12.6976 88.1777 11.9922 88.8832C11.9922 89.5886 11.2868 89.5886 10.5813 90.294C9.87591 90.9994 9.17048 90.9994 7.75962 90.9994C7.0542 90.9994 5.64334 90.9994 4.93792 90.294C4.23249 89.5886 3.52706 89.5886 2.82164 88.8832C2.82164 88.1777 2.11621 87.4723 2.11621 86.7669H3.52706C3.52706 86.7669 3.52706 87.4723 4.23249 88.1777C4.23249 88.8832 4.93792 88.8832 5.64334 89.5886C6.34877 89.5886 7.0542 90.294 7.75962 90.294C9.17048 90.294 9.87591 89.5886 10.5813 88.8832C11.2868 88.1777 11.2868 87.4723 11.2868 86.7669C11.2868 85.356 11.2868 84.6506 11.2868 84.6506C10.5813 83.9452 9.87591 83.2397 9.17048 83.2397C9.17048 83.2397 8.46505 82.5343 7.0542 82.5343C6.34877 81.8289 4.93792 81.8289 4.23249 81.8289C3.52706 81.1235 3.52706 80.418 2.82164 80.418C2.11621 79.7126 2.11621 79.0072 2.11621 77.5963C2.11621 76.1855 2.82164 75.4801 3.52706 74.7746C4.23249 74.0692 5.64334 73.3638 7.0542 73.3638C8.46505 73.3638 9.87591 74.0692 10.5813 74.7746C11.2868 75.4801 11.9922 76.1855 11.9922 77.5963H11.2868C11.2868 76.8909 10.5813 76.1855 9.87591 75.4801C9.17048 74.7746 8.46505 74.7746 7.0542 74.7746C5.64334 74.7746 4.93792 74.7746 4.23249 75.4801C3.52706 76.1855 3.52706 76.8909 3.52706 77.5963C3.52706 78.3018 3.52706 79.0072 4.23249 79.7126C4.23249 80.418 4.93792 80.418 5.64334 81.1235C5.64334 81.1235 7.0542 81.1235 7.75962 81.8289C9.17048 81.8289 9.87591 82.5343 10.5813 82.5343C11.2868 82.5343 11.2868 83.2397 11.9922 83.9452C12.6976 84.6506 12.6976 85.356 12.6976 86.7669Z" fill="#1A73E8"/>
<path d="M49.3798 73.3638C50.7907 73.3638 52.2015 74.0692 53.6124 74.7746C55.0232 75.4801 55.7287 76.1855 56.4341 77.5963C57.1395 79.0072 57.8449 80.418 57.8449 82.5343C57.8449 83.9452 57.1395 85.356 56.4341 86.7669C55.7287 88.1777 55.0232 88.8832 53.6124 89.5886C52.2015 90.294 50.7907 90.9994 49.3798 90.9994C47.969 90.9994 46.5581 90.294 45.1473 89.5886C43.7364 88.8832 43.031 88.1777 42.3255 86.7669C41.6201 85.356 41.6201 83.9452 41.6201 82.5343C41.6201 80.418 41.6201 79.0072 42.3255 77.5963C43.031 76.1855 43.7364 75.4801 45.1473 74.7746C46.5581 74.0692 47.969 73.3638 49.3798 73.3638ZM49.3798 74.7746C47.969 74.7746 47.2635 74.7746 45.8527 75.4801C45.1473 76.1855 43.7364 76.8909 43.031 78.3018C43.031 79.0072 42.3255 80.418 42.3255 82.5343C42.3255 83.9452 43.031 85.356 43.031 86.0615C43.7364 87.4723 45.1473 88.1777 45.8527 88.8832C47.2635 89.5886 47.969 89.5886 49.3798 89.5886C50.7907 89.5886 52.2015 89.5886 52.9069 88.8832C54.3178 88.1777 55.0232 87.4723 55.7287 86.0615C56.4341 85.356 56.4341 83.9452 56.4341 82.5343C56.4341 80.418 56.4341 79.0072 55.7287 78.3018C55.0232 76.8909 54.3178 76.1855 52.9069 75.4801C52.2015 74.7746 50.7907 74.7746 49.3798 74.7746Z" fill="#1A73E8"/>
<path d="M95.9376 73.3638V74.7746H88.1779V81.8289H94.5268V82.5343H88.1779V90.9994H86.7671V73.3638H95.9376Z" fill="#1A73E8"/>
<path d="M134.031 73.3638V74.7746H129.093V90.9994H127.682V74.7746H122.744V73.3638H134.031Z" fill="#1A73E8"/>
<path d="M182 73.3638L177.062 90.9994H175.651L171.418 75.4801L166.48 90.9994H165.775L160.837 73.3638H162.248L165.775 88.8832L170.713 73.3638H172.124L176.356 88.8832L180.589 73.3638H182Z" fill="#1A73E8"/>
<path d="M220.093 86.0623H211.628L210.217 91.0003H208.806L215.155 74.0701H216.566L222.915 91.0003H221.504L220.093 86.0623ZM219.388 85.3569L215.86 75.4809L212.333 85.3569H219.388Z" fill="#1A73E8"/>
<path d="M260.303 90.9994L255.365 83.2397H252.543V90.9994H251.132V73.3638H256.07C258.187 73.3638 259.597 74.0692 260.303 74.7746C261.008 76.1855 261.714 76.8909 261.714 78.3018C261.714 80.418 261.008 81.1235 260.303 81.8289C259.597 82.5343 258.187 83.2397 256.776 83.2397L261.714 90.9994H260.303ZM252.543 82.5343H256.07C258.892 82.5343 260.303 81.1235 260.303 78.3018C260.303 77.5963 260.303 76.1855 259.597 75.4801C258.892 74.7746 257.481 74.7746 256.07 74.7746H252.543V82.5343Z" fill="#1A73E8"/>
<path d="M291.342 74.7746V81.8289H298.396V82.5343H291.342V89.5886H299.101V90.9994H290.636V73.3638H299.101V74.7746H291.342Z" fill="#1A73E8"/>
</svg>
