<svg width="23" height="28" viewBox="0 0 23 28" fill="none" xmlns="http://www.w3.org/2000/svg">
<path d="M15.171 10.6817L15.171 10.6816C16.2477 9.60493 16.7831 8.31246 16.7831 6.79082C16.7831 5.26994 16.2478 3.97727 15.1709 2.90011C15.1709 2.90005 15.1708 2.9 15.1708 2.89994M15.171 10.6817L6.68222 11.389C5.41784 10.1248 4.77679 8.5778 4.77679 6.79082C4.77679 5.00426 5.41784 3.45726 6.68201 2.19309C7.94619 0.928925 9.49298 0.288086 11.28 0.288086C13.0665 0.288086 14.6135 0.928925 15.8779 2.19289L15.1708 2.89994M15.171 10.6817C14.0943 11.7585 12.8014 12.294 11.28 12.294C9.75907 12.294 8.46631 11.7585 7.38927 10.6818M15.171 10.6817L7.38927 10.6818M15.1708 2.89994C14.0938 1.82343 12.8011 1.28809 11.28 1.28809C9.75832 1.28809 8.46585 1.82348 7.38912 2.9002C6.31234 3.97698 5.77679 5.26968 5.77679 6.79082C5.77679 8.3124 6.31235 9.60506 7.38927 10.6818M15.1708 2.89994L7.38927 10.6818M21.6614 21.1196L21.6614 21.1188C21.6278 20.6343 21.5592 20.0967 21.4559 19.5203L21.6614 21.1196ZM21.6614 21.1196C21.6958 21.6092 21.7134 22.1224 21.7136 22.6444L21.6614 21.1196ZM22.659 21.0496C22.6225 20.5235 22.5488 19.9496 22.4402 19.3436L22.659 21.0496ZM22.659 21.0496C22.695 21.5638 22.7134 22.1004 22.7136 22.6444L22.659 21.0496ZM21.0682 17.9333L21.0682 17.9331C20.9155 17.456 20.7065 16.9809 20.4461 16.5228C20.1843 16.0622 19.8846 15.6751 19.561 15.3656L19.5608 15.3654C19.2436 15.0619 18.8428 14.8057 18.3569 14.6131L21.0682 17.9333ZM21.0682 17.9333C21.2221 18.4139 21.3532 18.9477 21.4559 19.5199L21.0682 17.9333ZM7.74581 15.3317L7.74515 15.3313C7.3336 15.0683 6.96026 14.8277 6.63568 14.6162L6.63548 14.6161C6.39249 14.4577 6.25616 14.3843 6.17332 14.3491C6.14328 14.3364 6.12688 14.3316 6.12102 14.3301C5.53374 14.3306 5.00564 14.4301 4.54356 14.6131L4.54341 14.6132C4.05798 14.8054 3.65696 15.0614 3.33921 15.3654C3.01524 15.6756 2.71544 16.0626 2.4543 16.5224L2.45424 16.5225C2.19396 16.9807 1.98497 17.4557 1.83211 17.9331C1.67829 18.4141 1.54724 18.9479 1.44452 19.5202C1.3413 20.0957 1.27267 20.6335 1.23909 21.1192L1.23907 21.1195C1.2049 21.612 1.1875 22.1251 1.1875 22.6446C1.1875 23.8264 1.55442 24.689 2.20839 25.3121C2.86454 25.9365 3.75736 26.2881 4.95024 26.2881H17.9508C19.1437 26.2881 20.0361 25.9367 20.6925 25.3121L20.6925 25.312C21.3464 24.6899 21.7135 23.8274 21.7136 22.6448L7.74581 15.3317ZM7.74581 15.3317C8.19649 15.6192 8.76251 15.8618 9.39966 16.0676L7.74581 15.3317ZM16.7788 14.3303C16.773 14.3318 16.7565 14.3366 16.7265 14.3494C16.6435 14.3846 16.5072 14.458 16.2641 14.6162L16.7788 14.3303ZM16.7788 14.3303C17.366 14.3308 17.8943 14.4301 18.3566 14.6129L16.7788 14.3303ZM15.1542 15.3318L15.1553 15.3311L9.39986 16.0676C10.0721 16.2849 10.7617 16.3976 11.4499 16.3976C12.1379 16.3976 12.8278 16.285 13.4996 16.0676C14.1375 15.8616 14.7033 15.619 15.1542 15.3318Z" stroke="#717171" stroke-width="2"/>
</svg>
