<svg width="16" height="18" viewBox="0 0 16 18" fill="none" xmlns="http://www.w3.org/2000/svg">
<path d="M15.353 10.2768C15.353 10.27 15.353 10.2631 15.353 10.2574C15.3428 9.25287 15.1396 8.27677 14.7504 7.35763C14.3635 6.44531 13.81 5.6264 13.1058 4.92251C12.4004 4.21863 11.5798 3.66737 10.6656 3.28126C9.79938 2.91565 8.88518 2.71519 7.94245 2.6833L9.15339 1.476C9.35997 1.26984 9.35997 0.934987 9.15339 0.728834C8.94681 0.52268 8.61126 0.52268 8.40469 0.728834L6.21335 2.91337C6.01019 3.11497 6.01248 3.46008 6.21335 3.66054L8.4024 5.84736C8.50626 5.951 8.64094 6.00226 8.77676 6.00226C8.91257 6.00226 9.04725 5.951 9.15111 5.84736C9.35769 5.6412 9.35769 5.30635 9.15111 5.10019L7.78609 3.73685C11.1872 3.79152 13.9732 6.41912 14.2699 9.7506H13.616C13.3238 9.7506 13.0864 9.9875 13.0864 10.2791C13.0864 10.5707 13.3238 10.8076 13.616 10.8076H14.2791C14.0508 14.0582 11.4554 16.6676 8.2061 16.925V16.2678C8.2061 15.9762 7.9687 15.7393 7.67652 15.7393C7.38435 15.7393 7.14695 15.9762 7.14695 16.2678V16.925C3.89761 16.6676 1.30225 14.0582 1.07398 10.8076H1.73709C2.02927 10.8076 2.26666 10.5707 2.26666 10.2791C2.26666 9.9875 2.02927 9.7506 1.73709 9.7506H1.08425C1.23263 8.10821 1.99617 6.56604 3.2288 5.44872C3.44565 5.25281 3.46163 4.9191 3.26532 4.70269C3.06901 4.48629 2.7346 4.47034 2.51775 4.66625C1.73252 5.37696 1.11393 6.22435 0.679086 7.1845C0.239677 8.15377 0.0114132 9.18681 0 10.2563C0 10.2631 0 10.27 0 10.2779C0 10.2825 0 10.2859 0 10.2905C0 10.3064 0 10.3235 0 10.3394C0 11.3736 0.203155 12.3771 0.603759 13.3213C0.990666 14.2336 1.54421 15.0525 2.2484 15.7564C2.95374 16.4603 3.77435 17.0127 4.68855 17.3976C5.63584 17.7974 6.6402 18.0001 7.67652 18.0001C8.71284 18.0001 9.71835 17.7974 10.6645 17.3976C11.5787 17.0115 12.3993 16.4591 13.1046 15.7564C13.81 15.0525 14.3624 14.2336 14.7493 13.3213C15.1499 12.3759 15.353 11.3736 15.353 10.3394C15.353 10.3224 15.353 10.3064 15.353 10.2893C15.353 10.2848 15.353 10.2814 15.353 10.2768Z" fill="#1A73E8"/>
</svg>
